<svg id="visual" viewBox="0 0 900 90" width="900" height="90" xmlns="http://www.w3.org/2000/svg" xmlns:xlink="http://www.w3.org/1999/xlink" version="1.1"><path d="M0 61L11.5 59.5C23 58 46 55 69 52C92 49 115 46 138.2 45C161.3 44 184.7 45 207.8 45.8C231 46.7 254 47.3 277 50.7C300 54 323 60 346 60.7C369 61.3 392 56.7 415.2 56.8C438.3 57 461.7 62 484.8 62.2C508 62.3 531 57.7 554 54.8C577 52 600 51 623 47.8C646 44.7 669 39.3 692.2 38.7C715.3 38 738.7 42 761.8 45.3C785 48.7 808 51.3 831 50.8C854 50.3 877 46.7 888.5 44.8L900 43L900 0L888.5 0C877 0 854 0 831 0C808 0 785 0 761.8 0C738.7 0 715.3 0 692.2 0C669 0 646 0 623 0C600 0 577 0 554 0C531 0 508 0 484.8 0C461.7 0 438.3 0 415.2 0C392 0 369 0 346 0C323 0 300 0 277 0C254 0 231 0 207.8 0C184.7 0 161.3 0 138.2 0C115 0 92 0 69 0C46 0 23 0 11.5 0L0 0Z" fill="#58c7f3"></path><path d="M0 43L11.5 44.5C23 46 46 49 69 48.2C92 47.3 115 42.7 138.2 43.5C161.3 44.3 184.7 50.7 207.8 52.8C231 55 254 53 277 47.8C300 42.7 323 34.3 346 30.3C369 26.3 392 26.7 415.2 31.7C438.3 36.7 461.7 46.3 484.8 51.7C508 57 531 58 554 54.2C577 50.3 600 41.7 623 38.8C646 36 669 39 692.2 41.5C715.3 44 738.7 46 761.8 43.7C785 41.3 808 34.7 831 35C854 35.3 877 42.7 888.5 46.3L900 50L900 0L888.5 0C877 0 854 0 831 0C808 0 785 0 761.8 0C738.7 0 715.3 0 692.2 0C669 0 646 0 623 0C600 0 577 0 554 0C531 0 508 0 484.8 0C461.7 0 438.3 0 415.2 0C392 0 369 0 346 0C323 0 300 0 277 0C254 0 231 0 207.8 0C184.7 0 161.3 0 138.2 0C115 0 92 0 69 0C46 0 23 0 11.5 0L0 0Z" fill="#5ec1f9"></path><path d="M0 24L11.5 27.3C23 30.7 46 37.3 69 40.5C92 43.7 115 43.3 138.2 44.3C161.3 45.3 184.7 47.7 207.8 46.3C231 45 254 40 277 39.3C300 38.7 323 42.3 346 42.7C369 43 392 40 415.2 41.8C438.3 43.7 461.7 50.3 484.8 50.2C508 50 531 43 554 43C577 43 600 50 623 48C646 46 669 35 692.2 34.5C715.3 34 738.7 44 761.8 46.7C785 49.3 808 44.7 831 41.5C854 38.3 877 36.7 888.5 35.8L900 35L900 0L888.5 0C877 0 854 0 831 0C808 0 785 0 761.8 0C738.7 0 715.3 0 692.2 0C669 0 646 0 623 0C600 0 577 0 554 0C531 0 508 0 484.8 0C461.7 0 438.3 0 415.2 0C392 0 369 0 346 0C323 0 300 0 277 0C254 0 231 0 207.8 0C184.7 0 161.3 0 138.2 0C115 0 92 0 69 0C46 0 23 0 11.5 0L0 0Z" fill="#6bbbfd"></path><path d="M0 22L11.5 26.5C23 31 46 40 69 41.8C92 43.7 115 38.3 138.2 34.5C161.3 30.7 184.7 28.3 207.8 28.5C231 28.7 254 31.3 277 32C300 32.7 323 31.3 346 31.8C369 32.3 392 34.7 415.2 36.5C438.3 38.3 461.7 39.7 484.8 39.5C508 39.3 531 37.7 554 34.2C577 30.7 600 25.3 623 25.7C646 26 669 32 692.2 35.2C715.3 38.3 738.7 38.7 761.8 38.3C785 38 808 37 831 37C854 37 877 38 888.5 38.5L900 39L900 0L888.5 0C877 0 854 0 831 0C808 0 785 0 761.8 0C738.7 0 715.3 0 692.2 0C669 0 646 0 623 0C600 0 577 0 554 0C531 0 508 0 484.8 0C461.7 0 438.3 0 415.2 0C392 0 369 0 346 0C323 0 300 0 277 0C254 0 231 0 207.8 0C184.7 0 161.3 0 138.2 0C115 0 92 0 69 0C46 0 23 0 11.5 0L0 0Z" fill="#7cb4fe"></path><path d="M0 25L11.5 24.7C23 24.3 46 23.7 69 25.8C92 28 115 33 138.2 32.8C161.3 32.7 184.7 27.3 207.8 26C231 24.7 254 27.3 277 30.8C300 34.3 323 38.7 346 39.7C369 40.7 392 38.3 415.2 37.2C438.3 36 461.7 36 484.8 32.8C508 29.7 531 23.3 554 23.8C577 24.3 600 31.7 623 34.7C646 37.7 669 36.3 692.2 33.8C715.3 31.3 738.7 27.7 761.8 26.3C785 25 808 26 831 29.5C854 33 877 39 888.5 42L900 45L900 0L888.5 0C877 0 854 0 831 0C808 0 785 0 761.8 0C738.7 0 715.3 0 692.2 0C669 0 646 0 623 0C600 0 577 0 554 0C531 0 508 0 484.8 0C461.7 0 438.3 0 415.2 0C392 0 369 0 346 0C323 0 300 0 277 0C254 0 231 0 207.8 0C184.7 0 161.3 0 138.2 0C115 0 92 0 69 0C46 0 23 0 11.5 0L0 0Z" fill="#90abfc"></path><path d="M0 21L11.5 23.5C23 26 46 31 69 30C92 29 115 22 138.2 20.5C161.3 19 184.7 23 207.8 22.8C231 22.7 254 18.3 277 16.2C300 14 323 14 346 15.7C369 17.3 392 20.7 415.2 20.5C438.3 20.3 461.7 16.7 484.8 15.7C508 14.7 531 16.3 554 18.3C577 20.3 600 22.7 623 25.8C646 29 669 33 692.2 31.5C715.3 30 738.7 23 761.8 20.2C785 17.3 808 18.7 831 19.2C854 19.7 877 19.3 888.5 19.2L900 19L900 0L888.5 0C877 0 854 0 831 0C808 0 785 0 761.8 0C738.7 0 715.3 0 692.2 0C669 0 646 0 623 0C600 0 577 0 554 0C531 0 508 0 484.8 0C461.7 0 438.3 0 415.2 0C392 0 369 0 346 0C323 0 300 0 277 0C254 0 231 0 207.8 0C184.7 0 161.3 0 138.2 0C115 0 92 0 69 0C46 0 23 0 11.5 0L0 0Z" fill="#a4a2f7"></path><path d="M0 9L11.5 10.8C23 12.7 46 16.3 69 19.5C92 22.7 115 25.3 138.2 26.3C161.3 27.3 184.7 26.7 207.8 25.2C231 23.7 254 21.3 277 20.3C300 19.3 323 19.7 346 20.7C369 21.7 392 23.3 415.2 25C438.3 26.7 461.7 28.3 484.8 28.5C508 28.7 531 27.3 554 25.2C577 23 600 20 623 19.3C646 18.7 669 20.3 692.2 20C715.3 19.7 738.7 17.3 761.8 15.2C785 13 808 11 831 10.7C854 10.3 877 11.7 888.5 12.3L900 13L900 0L888.5 0C877 0 854 0 831 0C808 0 785 0 761.8 0C738.7 0 715.3 0 692.2 0C669 0 646 0 623 0C600 0 577 0 554 0C531 0 508 0 484.8 0C461.7 0 438.3 0 415.2 0C392 0 369 0 346 0C323 0 300 0 277 0C254 0 231 0 207.8 0C184.7 0 161.3 0 138.2 0C115 0 92 0 69 0C46 0 23 0 11.5 0L0 0Z" fill="#b899ee"></path><path d="M0 16L11.5 16.5C23 17 46 18 69 19C92 20 115 21 138.2 20C161.3 19 184.7 16 207.8 14.2C231 12.3 254 11.7 277 11.3C300 11 323 11 346 11.8C369 12.7 392 14.3 415.2 16C438.3 17.7 461.7 19.3 484.8 20.2C508 21 531 21 554 18.5C577 16 600 11 623 11.5C646 12 669 18 692.2 21C715.3 24 738.7 24 761.8 23.3C785 22.7 808 21.3 831 19.8C854 18.3 877 16.7 888.5 15.8L900 15L900 0L888.5 0C877 0 854 0 831 0C808 0 785 0 761.8 0C738.7 0 715.3 0 692.2 0C669 0 646 0 623 0C600 0 577 0 554 0C531 0 508 0 484.8 0C461.7 0 438.3 0 415.2 0C392 0 369 0 346 0C323 0 300 0 277 0C254 0 231 0 207.8 0C184.7 0 161.3 0 138.2 0C115 0 92 0 69 0C46 0 23 0 11.5 0L0 0Z" fill="#ca8ee2"></path><path d="M0 11L11.5 11C23 11 46 11 69 11.2C92 11.3 115 11.7 138.2 12.7C161.3 13.7 184.7 15.3 207.8 13.8C231 12.3 254 7.7 277 6.8C300 6 323 9 346 11.3C369 13.7 392 15.3 415.2 14.8C438.3 14.3 461.7 11.7 484.8 11.2C508 10.7 531 12.3 554 12.7C577 13 600 12 623 11.8C646 11.7 669 12.3 692.2 11.8C715.3 11.3 738.7 9.7 761.8 7.8C785 6 808 4 831 3.2C854 2.3 877 2.7 888.5 2.8L900 3L900 0L888.5 0C877 0 854 0 831 0C808 0 785 0 761.8 0C738.7 0 715.3 0 692.2 0C669 0 646 0 623 0C600 0 577 0 554 0C531 0 508 0 484.8 0C461.7 0 438.3 0 415.2 0C392 0 369 0 346 0C323 0 300 0 277 0C254 0 231 0 207.8 0C184.7 0 161.3 0 138.2 0C115 0 92 0 69 0C46 0 23 0 11.5 0L0 0Z" fill="#da83d3"></path><path d="M0 9L11.5 9.3C23 9.7 46 10.3 69 8.8C92 7.3 115 3.7 138.2 3.2C161.3 2.7 184.7 5.3 207.8 7.2C231 9 254 10 277 8.7C300 7.3 323 3.7 346 3.5C369 3.3 392 6.7 415.2 7.7C438.3 8.7 461.7 7.3 484.8 7.3C508 7.3 531 8.7 554 8.5C577 8.3 600 6.7 623 7C646 7.3 669 9.7 692.2 10.5C715.3 11.3 738.7 10.7 761.8 9.5C785 8.3 808 6.7 831 6.7C854 6.7 877 8.3 888.5 9.2L900 10L900 0L888.5 0C877 0 854 0 831 0C808 0 785 0 761.8 0C738.7 0 715.3 0 692.2 0C669 0 646 0 623 0C600 0 577 0 554 0C531 0 508 0 484.8 0C461.7 0 438.3 0 415.2 0C392 0 369 0 346 0C323 0 300 0 277 0C254 0 231 0 207.8 0C184.7 0 161.3 0 138.2 0C115 0 92 0 69 0C46 0 23 0 11.5 0L0 0Z" fill="#e779c1"></path></svg>