<svg width="24" height="24" viewBox="0 0 24 24" fill="none" xmlns="http://www.w3.org/2000/svg">
<rect width="24" height="24" fill="none"/>
<g id="CoquiDev-24x24">
<g id="Coqui Taino">
<ellipse id="Ellipse 1" cx="13.0248" cy="10.0532" rx="0.2503" ry="0.285627" fill="#00D8FF"/>
<ellipse id="Ellipse 2" cx="0.2503" cy="0.285627" rx="0.2503" ry="0.285627" transform="matrix(1 0 0 -1 10.7906 10.3388)" fill="#00D8FF"/>
<path id="Vector 1" d="M8.99219 10.3431C9.01706 10.1703 9.13256 10.2035 9.22178 10.2292C9.24068 10.2347 9.2584 10.2398 9.27383 10.2425C9.29086 10.2455 9.3051 10.2457 9.31505 10.2402C9.34141 10.2695 9.35506 10.2994 9.36132 10.3189C9.36496 10.3302 9.36642 10.3387 9.36698 10.3431H9.30368H8.99219ZM8.99219 10.3431C8.99219 10.4517 9.02942 10.5763 9.26403 10.5337C9.29563 10.5115 9.32026 10.4845 9.33747 10.4571C9.33831 10.4558 9.33912 10.4545 9.33992 10.4531C9.36107 10.418 9.36383 10.3933 9.36337 10.3965L9.31756 10.39L8.99219 10.3431ZM9.46538 10.5839C9.85071 10.8212 10.5119 11.1279 11.0456 11.2C11.163 11.2231 11.4192 11.2952 11.5045 11.3991L9.46538 10.5839ZM9.46538 10.5839C9.48891 10.5734 9.51289 10.56 9.53666 10.5429C9.5779 10.5133 9.60929 10.4797 9.63312 10.445C9.64628 10.4701 9.66383 10.4974 9.68733 10.5244C9.68689 10.5239 9.68664 10.5236 9.68664 10.5236C9.68663 10.5236 9.6884 10.5258 9.69318 10.532C9.69406 10.5331 9.69524 10.5347 9.69665 10.5365C9.70193 10.5434 9.71042 10.5545 9.71783 10.5639C9.72782 10.5765 9.74335 10.5956 9.76224 10.6153C9.7784 10.6322 9.81017 10.6637 9.85534 10.6917C10.3346 10.9933 10.7345 11.1257 11.0515 11.156C11.0524 11.1561 11.0533 11.1562 11.0542 11.1562C11.0917 11.1598 11.1282 11.1619 11.1634 11.1626C11.2888 11.1654 11.404 11.1513 11.5049 11.1218L9.46538 10.5839ZM10.1823 13.4883C10.195 13.5126 10.2083 13.5358 10.2221 13.5578C10.2743 13.6416 10.3372 13.7166 10.403 13.7819C10.3959 13.7931 10.3893 13.8045 10.3831 13.8161C10.3806 13.8208 10.3783 13.8254 10.376 13.83C10.3025 13.7343 10.2339 13.6148 10.1823 13.4883Z" fill="#00D8FF" stroke="#00D8FF" stroke-width="0.75"/>
<path id="Vector 2" d="M15.004 10.3475C14.9792 10.1746 14.8637 10.2079 14.7744 10.2336C14.7555 10.239 14.7378 10.2441 14.7224 10.2469C14.7054 10.2499 14.6911 10.25 14.6812 10.2445C14.6548 10.2738 14.6412 10.3038 14.6349 10.3232C14.6313 10.3345 14.6298 10.343 14.6292 10.3475H14.6925H15.004ZM15.004 10.3475C15.004 10.4561 14.9668 10.5807 14.7322 10.5381C14.7006 10.5159 14.676 10.4888 14.6587 10.4614C14.6579 10.4601 14.6571 10.4588 14.6563 10.4575C14.6351 10.4223 14.6324 10.3977 14.6329 10.4009L14.6787 10.3943L15.004 10.3475ZM14.5308 10.5882C14.1455 10.8255 13.4843 11.1323 12.9506 11.2044C12.8332 11.2274 12.577 11.2996 12.4918 11.4034L14.5308 10.5882ZM14.5308 10.5882C14.5073 10.5778 14.4833 10.5644 14.4596 10.5473C14.4183 10.5176 14.3869 10.484 14.3631 10.4494C14.3499 10.4744 14.3324 10.5017 14.3089 10.5287C14.3093 10.5282 14.3096 10.5279 14.3096 10.5279C14.3096 10.5279 14.3078 10.5301 14.303 10.5363C14.3022 10.5375 14.301 10.539 14.2996 10.5408C14.2943 10.5478 14.2858 10.5589 14.2784 10.5682C14.2684 10.5808 14.2529 10.5999 14.234 10.6197C14.2178 10.6365 14.186 10.668 14.1409 10.6961C13.6616 10.9976 13.2617 11.13 12.9447 11.1603C12.9438 11.1604 12.9429 11.1605 12.942 11.1606C12.9045 11.1641 12.8681 11.1662 12.8328 11.167C12.7075 11.1697 12.5922 11.1556 12.4913 11.1261L14.5308 10.5882ZM13.8139 13.4926C13.8012 13.5169 13.7879 13.5401 13.7742 13.5621C13.7219 13.646 13.659 13.7209 13.5932 13.7863C13.6003 13.7974 13.607 13.8088 13.6131 13.8204C13.6156 13.8251 13.6179 13.8297 13.6202 13.8343C13.6937 13.7386 13.7623 13.6192 13.8139 13.4926Z" fill="#00D8FF" stroke="#00D8FF" stroke-width="0.75"/>
</g>
<g id="Group 1">
<path id="Ellipse 3" d="M15.9263 14.1192C15.1491 15.3761 14.2716 16.5607 13.345 17.6049C12.4179 18.6497 11.4636 19.5295 10.5388 20.1969C9.61174 20.866 8.74642 21.2986 7.99306 21.4908C7.24255 21.6824 6.64268 21.6267 6.19221 21.3839C5.74174 21.1411 5.39021 20.6839 5.19262 19.9813C4.99429 19.276 4.96287 18.36 5.11994 17.2759C5.27663 16.1944 5.61547 14.9829 6.12106 13.7109C6.62639 12.4395 7.28638 11.1377 8.06362 9.8808C8.84085 8.62391 9.71837 7.43935 10.645 6.39507C11.572 5.35026 12.5263 4.47055 13.4511 3.80311C14.3782 3.13403 15.2435 2.70145 15.9969 2.50918C16.7474 2.31763 17.3473 2.37325 17.7978 2.61608C18.2482 2.85891 18.5998 3.31613 18.7973 4.01875C18.9957 4.72403 19.0271 5.63999 18.87 6.72415C18.7133 7.80565 18.3745 9.01711 17.8689 10.2891C17.3636 11.5605 16.7036 12.8623 15.9263 14.1192L15.9263 14.1192Z" stroke="#00D8FF" stroke-width="0.75"/>
<path id="Ellipse 4" d="M8.06364 14.1192C8.84087 15.3761 9.7184 16.5607 10.645 17.6049C11.5721 18.6497 12.5264 19.5295 13.4512 20.1969C14.3783 20.866 15.2436 21.2986 15.9969 21.4908C16.7474 21.6824 17.3473 21.6267 17.7978 21.3839C18.2483 21.1411 18.5998 20.6839 18.7974 19.9813C18.9957 19.276 19.0271 18.36 18.87 17.2759C18.7134 16.1944 18.3745 14.9829 17.8689 13.7109C17.3636 12.4395 16.7036 11.1377 15.9264 9.8808C15.1491 8.62391 14.2716 7.43935 13.345 6.39507C12.4179 5.35026 11.4637 4.47055 10.5389 3.80311C9.61176 3.13403 8.74644 2.70145 7.99309 2.50918C7.24258 2.31763 6.64271 2.37325 6.19223 2.61608C5.74176 2.85891 5.39023 3.31613 5.19265 4.01875C4.99432 4.72403 4.9629 5.63999 5.11997 6.72415C5.27666 7.80565 5.6155 9.01711 6.12109 10.2891C6.62642 11.5605 7.28641 12.8623 8.06364 14.1192L8.06364 14.1192Z" stroke="#00D8FF" stroke-width="0.75"/>
<path id="Ellipse 5" d="M12 7.54163C13.5575 7.54163 15.0983 7.65912 16.5335 7.88672C17.9694 8.11443 19.2661 8.44705 20.3512 8.86247C21.4394 9.2791 22.2761 9.76425 22.832 10.2781C23.3871 10.7912 23.625 11.2958 23.625 11.7609C23.625 12.226 23.3871 12.7306 22.832 13.2437C22.2761 13.7575 21.4394 14.2427 20.3512 14.6593C19.2661 15.0747 17.9694 15.4074 16.5335 15.6351C15.0983 15.8627 13.5575 15.9802 12 15.9802C10.4425 15.9802 8.90173 15.8627 7.46653 15.6351C6.03062 15.4074 4.73386 15.0747 3.6488 14.6593C2.56058 14.2427 1.72395 13.7575 1.16798 13.2437C0.612924 12.7306 0.375 12.226 0.375 11.7609C0.375 11.2958 0.612925 10.7912 1.16798 10.2781C1.72395 9.76425 2.56059 9.2791 3.6488 8.86247C4.73386 8.44705 6.03062 8.11443 7.46654 7.88672C8.90174 7.65912 10.4425 7.54163 12 7.54163L12 7.54163Z" stroke="#00D8FF" stroke-width="0.75"/>
</g>
</g>
</svg>
