<svg id="visual" viewBox="0 0 960 300" width="960" height="300" xmlns="http://www.w3.org/2000/svg" xmlns:xlink="http://www.w3.org/1999/xlink" version="1.1"><rect x="0" y="0" width="960" height="300" fill="#170d36"></rect><path d="M0 193L16 198.8C32 204.7 64 216.3 96 216.2C128 216 160 204 192 199.8C224 195.7 256 199.3 288 204.7C320 210 352 217 384 216C416 215 448 206 480 201.3C512 196.7 544 196.3 576 196.2C608 196 640 196 672 200.3C704 204.7 736 213.3 768 219C800 224.7 832 227.3 864 222.3C896 217.3 928 204.7 944 198.3L960 192L960 301L944 301C928 301 896 301 864 301C832 301 800 301 768 301C736 301 704 301 672 301C640 301 608 301 576 301C544 301 512 301 480 301C448 301 416 301 384 301C352 301 320 301 288 301C256 301 224 301 192 301C160 301 128 301 96 301C64 301 32 301 16 301L0 301Z" fill="#58c7f3"></path><path d="M0 229L16 233.3C32 237.7 64 246.3 96 249.2C128 252 160 249 192 243.3C224 237.7 256 229.3 288 226.5C320 223.7 352 226.3 384 227.3C416 228.3 448 227.7 480 230.8C512 234 544 241 576 240.2C608 239.3 640 230.7 672 229.3C704 228 736 234 768 237.8C800 241.7 832 243.3 864 241.5C896 239.7 928 234.3 944 231.7L960 229L960 301L944 301C928 301 896 301 864 301C832 301 800 301 768 301C736 301 704 301 672 301C640 301 608 301 576 301C544 301 512 301 480 301C448 301 416 301 384 301C352 301 320 301 288 301C256 301 224 301 192 301C160 301 128 301 96 301C64 301 32 301 16 301L0 301Z" fill="#7cb4fe"></path><path d="M0 255L16 255.3C32 255.7 64 256.3 96 257.8C128 259.3 160 261.7 192 260C224 258.3 256 252.7 288 248C320 243.3 352 239.7 384 242.8C416 246 448 256 480 257.2C512 258.3 544 250.7 576 250.2C608 249.7 640 256.3 672 255.7C704 255 736 247 768 246C800 245 832 251 864 251.8C896 252.7 928 248.3 944 246.2L960 244L960 301L944 301C928 301 896 301 864 301C832 301 800 301 768 301C736 301 704 301 672 301C640 301 608 301 576 301C544 301 512 301 480 301C448 301 416 301 384 301C352 301 320 301 288 301C256 301 224 301 192 301C160 301 128 301 96 301C64 301 32 301 16 301L0 301Z" fill="#b899ee"></path><path d="M0 280L16 277.5C32 275 64 270 96 268C128 266 160 267 192 268.3C224 269.7 256 271.3 288 275C320 278.7 352 284.3 384 283.7C416 283 448 276 480 274.8C512 273.7 544 278.3 576 279.7C608 281 640 279 672 278.2C704 277.3 736 277.7 768 279.8C800 282 832 286 864 287.3C896 288.7 928 287.3 944 286.7L960 286L960 301L944 301C928 301 896 301 864 301C832 301 800 301 768 301C736 301 704 301 672 301C640 301 608 301 576 301C544 301 512 301 480 301C448 301 416 301 384 301C352 301 320 301 288 301C256 301 224 301 192 301C160 301 128 301 96 301C64 301 32 301 16 301L0 301Z" fill="#e779c1"></path></svg>