<svg id="visual" viewBox="0 0 900 90" width="900" height="90" xmlns="http://www.w3.org/2000/svg" xmlns:xlink="http://www.w3.org/1999/xlink" version="1.1"><path d="M0 27L11.5 28.5C23 30 46 33 69 36C92 39 115 42 138.2 43C161.3 44 184.7 43 207.8 42.2C231 41.3 254 40.7 277 37.3C300 34 323 28 346 27.3C369 26.7 392 31.3 415.2 31.2C438.3 31 461.7 26 484.8 25.8C508 25.7 531 30.3 554 33.2C577 36 600 37 623 40.2C646 43.3 669 48.7 692.2 49.3C715.3 50 738.7 46 761.8 42.7C785 39.3 808 36.7 831 37.2C854 37.7 877 41.3 888.5 43.2L900 45L900 91L888.5 91C877 91 854 91 831 91C808 91 785 91 761.8 91C738.7 91 715.3 91 692.2 91C669 91 646 91 623 91C600 91 577 91 554 91C531 91 508 91 484.8 91C461.7 91 438.3 91 415.2 91C392 91 369 91 346 91C323 91 300 91 277 91C254 91 231 91 207.8 91C184.7 91 161.3 91 138.2 91C115 91 92 91 69 91C46 91 23 91 11.5 91L0 91Z" fill="#58c7f3"></path><path d="M0 45L11.5 43.5C23 42 46 39 69 39.8C92 40.7 115 45.3 138.2 44.5C161.3 43.7 184.7 37.3 207.8 35.2C231 33 254 35 277 40.2C300 45.3 323 53.7 346 57.7C369 61.7 392 61.3 415.2 56.3C438.3 51.3 461.7 41.7 484.8 36.3C508 31 531 30 554 33.8C577 37.7 600 46.3 623 49.2C646 52 669 49 692.2 46.5C715.3 44 738.7 42 761.8 44.3C785 46.7 808 53.3 831 53C854 52.7 877 45.3 888.5 41.7L900 38L900 91L888.5 91C877 91 854 91 831 91C808 91 785 91 761.8 91C738.7 91 715.3 91 692.2 91C669 91 646 91 623 91C600 91 577 91 554 91C531 91 508 91 484.8 91C461.7 91 438.3 91 415.2 91C392 91 369 91 346 91C323 91 300 91 277 91C254 91 231 91 207.8 91C184.7 91 161.3 91 138.2 91C115 91 92 91 69 91C46 91 23 91 11.5 91L0 91Z" fill="#5ec1f9"></path><path d="M0 64L11.5 60.7C23 57.3 46 50.7 69 47.5C92 44.3 115 44.7 138.2 43.7C161.3 42.7 184.7 40.3 207.8 41.7C231 43 254 48 277 48.7C300 49.3 323 45.7 346 45.3C369 45 392 48 415.2 46.2C438.3 44.3 461.7 37.7 484.8 37.8C508 38 531 45 554 45C577 45 600 38 623 40C646 42 669 53 692.2 53.5C715.3 54 738.7 44 761.8 41.3C785 38.7 808 43.3 831 46.5C854 49.7 877 51.3 888.5 52.2L900 53L900 91L888.5 91C877 91 854 91 831 91C808 91 785 91 761.8 91C738.7 91 715.3 91 692.2 91C669 91 646 91 623 91C600 91 577 91 554 91C531 91 508 91 484.8 91C461.7 91 438.3 91 415.2 91C392 91 369 91 346 91C323 91 300 91 277 91C254 91 231 91 207.8 91C184.7 91 161.3 91 138.2 91C115 91 92 91 69 91C46 91 23 91 11.5 91L0 91Z" fill="#6bbbfd"></path><path d="M0 66L11.5 61.5C23 57 46 48 69 46.2C92 44.3 115 49.7 138.2 53.5C161.3 57.3 184.7 59.7 207.8 59.5C231 59.3 254 56.7 277 56C300 55.3 323 56.7 346 56.2C369 55.7 392 53.3 415.2 51.5C438.3 49.7 461.7 48.3 484.8 48.5C508 48.7 531 50.3 554 53.8C577 57.3 600 62.7 623 62.3C646 62 669 56 692.2 52.8C715.3 49.7 738.7 49.3 761.8 49.7C785 50 808 51 831 51C854 51 877 50 888.5 49.5L900 49L900 91L888.5 91C877 91 854 91 831 91C808 91 785 91 761.8 91C738.7 91 715.3 91 692.2 91C669 91 646 91 623 91C600 91 577 91 554 91C531 91 508 91 484.8 91C461.7 91 438.3 91 415.2 91C392 91 369 91 346 91C323 91 300 91 277 91C254 91 231 91 207.8 91C184.7 91 161.3 91 138.2 91C115 91 92 91 69 91C46 91 23 91 11.5 91L0 91Z" fill="#7cb4fe"></path><path d="M0 63L11.5 63.3C23 63.7 46 64.3 69 62.2C92 60 115 55 138.2 55.2C161.3 55.3 184.7 60.7 207.8 62C231 63.3 254 60.7 277 57.2C300 53.7 323 49.3 346 48.3C369 47.3 392 49.7 415.2 50.8C438.3 52 461.7 52 484.8 55.2C508 58.3 531 64.7 554 64.2C577 63.7 600 56.3 623 53.3C646 50.3 669 51.7 692.2 54.2C715.3 56.7 738.7 60.3 761.8 61.7C785 63 808 62 831 58.5C854 55 877 49 888.5 46L900 43L900 91L888.5 91C877 91 854 91 831 91C808 91 785 91 761.8 91C738.7 91 715.3 91 692.2 91C669 91 646 91 623 91C600 91 577 91 554 91C531 91 508 91 484.8 91C461.7 91 438.3 91 415.2 91C392 91 369 91 346 91C323 91 300 91 277 91C254 91 231 91 207.8 91C184.7 91 161.3 91 138.2 91C115 91 92 91 69 91C46 91 23 91 11.5 91L0 91Z" fill="#90abfc"></path><path d="M0 67L11.5 64.5C23 62 46 57 69 58C92 59 115 66 138.2 67.5C161.3 69 184.7 65 207.8 65.2C231 65.3 254 69.7 277 71.8C300 74 323 74 346 72.3C369 70.7 392 67.3 415.2 67.5C438.3 67.7 461.7 71.3 484.8 72.3C508 73.3 531 71.7 554 69.7C577 67.7 600 65.3 623 62.2C646 59 669 55 692.2 56.5C715.3 58 738.7 65 761.8 67.8C785 70.7 808 69.3 831 68.8C854 68.3 877 68.7 888.5 68.8L900 69L900 91L888.5 91C877 91 854 91 831 91C808 91 785 91 761.8 91C738.7 91 715.3 91 692.2 91C669 91 646 91 623 91C600 91 577 91 554 91C531 91 508 91 484.8 91C461.7 91 438.3 91 415.2 91C392 91 369 91 346 91C323 91 300 91 277 91C254 91 231 91 207.8 91C184.7 91 161.3 91 138.2 91C115 91 92 91 69 91C46 91 23 91 11.5 91L0 91Z" fill="#a4a2f7"></path><path d="M0 79L11.5 77.2C23 75.3 46 71.7 69 68.5C92 65.3 115 62.7 138.2 61.7C161.3 60.7 184.7 61.3 207.8 62.8C231 64.3 254 66.7 277 67.7C300 68.7 323 68.3 346 67.3C369 66.3 392 64.7 415.2 63C438.3 61.3 461.7 59.7 484.8 59.5C508 59.3 531 60.7 554 62.8C577 65 600 68 623 68.7C646 69.3 669 67.7 692.2 68C715.3 68.3 738.7 70.7 761.8 72.8C785 75 808 77 831 77.3C854 77.7 877 76.3 888.5 75.7L900 75L900 91L888.5 91C877 91 854 91 831 91C808 91 785 91 761.8 91C738.7 91 715.3 91 692.2 91C669 91 646 91 623 91C600 91 577 91 554 91C531 91 508 91 484.8 91C461.7 91 438.3 91 415.2 91C392 91 369 91 346 91C323 91 300 91 277 91C254 91 231 91 207.8 91C184.7 91 161.3 91 138.2 91C115 91 92 91 69 91C46 91 23 91 11.5 91L0 91Z" fill="#b899ee"></path><path d="M0 72L11.5 71.5C23 71 46 70 69 69C92 68 115 67 138.2 68C161.3 69 184.7 72 207.8 73.8C231 75.7 254 76.3 277 76.7C300 77 323 77 346 76.2C369 75.3 392 73.7 415.2 72C438.3 70.3 461.7 68.7 484.8 67.8C508 67 531 67 554 69.5C577 72 600 77 623 76.5C646 76 669 70 692.2 67C715.3 64 738.7 64 761.8 64.7C785 65.3 808 66.7 831 68.2C854 69.7 877 71.3 888.5 72.2L900 73L900 91L888.5 91C877 91 854 91 831 91C808 91 785 91 761.8 91C738.7 91 715.3 91 692.2 91C669 91 646 91 623 91C600 91 577 91 554 91C531 91 508 91 484.8 91C461.7 91 438.3 91 415.2 91C392 91 369 91 346 91C323 91 300 91 277 91C254 91 231 91 207.8 91C184.7 91 161.3 91 138.2 91C115 91 92 91 69 91C46 91 23 91 11.5 91L0 91Z" fill="#ca8ee2"></path><path d="M0 77L11.5 77C23 77 46 77 69 76.8C92 76.7 115 76.3 138.2 75.3C161.3 74.3 184.7 72.7 207.8 74.2C231 75.7 254 80.3 277 81.2C300 82 323 79 346 76.7C369 74.3 392 72.7 415.2 73.2C438.3 73.7 461.7 76.3 484.8 76.8C508 77.3 531 75.7 554 75.3C577 75 600 76 623 76.2C646 76.3 669 75.7 692.2 76.2C715.3 76.7 738.7 78.3 761.8 80.2C785 82 808 84 831 84.8C854 85.7 877 85.3 888.5 85.2L900 85L900 91L888.5 91C877 91 854 91 831 91C808 91 785 91 761.8 91C738.7 91 715.3 91 692.2 91C669 91 646 91 623 91C600 91 577 91 554 91C531 91 508 91 484.8 91C461.7 91 438.3 91 415.2 91C392 91 369 91 346 91C323 91 300 91 277 91C254 91 231 91 207.8 91C184.7 91 161.3 91 138.2 91C115 91 92 91 69 91C46 91 23 91 11.5 91L0 91Z" fill="#da83d3"></path><path d="M0 79L11.5 78.7C23 78.3 46 77.7 69 79.3C92 81 115 85 138.2 85.5C161.3 86 184.7 83 207.8 81C231 79 254 78 277 79.5C300 81 323 85 346 85.2C369 85.3 392 81.7 415.2 80.5C438.3 79.3 461.7 80.7 484.8 80.7C508 80.7 531 79.3 554 79.5C577 79.7 600 81.3 623 81C646 80.7 669 78.3 692.2 77.5C715.3 76.7 738.7 77.3 761.8 78.5C785 79.7 808 81.3 831 81.3C854 81.3 877 79.7 888.5 78.8L900 78L900 91L888.5 91C877 91 854 91 831 91C808 91 785 91 761.8 91C738.7 91 715.3 91 692.2 91C669 91 646 91 623 91C600 91 577 91 554 91C531 91 508 91 484.8 91C461.7 91 438.3 91 415.2 91C392 91 369 91 346 91C323 91 300 91 277 91C254 91 231 91 207.8 91C184.7 91 161.3 91 138.2 91C115 91 92 91 69 91C46 91 23 91 11.5 91L0 91Z" fill="#e779c1"></path></svg>